<?xml version="1.0" encoding="UTF-8"?>
<svg id="Layer_1" data-name="Layer 1" xmlns="http://www.w3.org/2000/svg" viewBox="0 0 306.32 235.07">
  <defs>
    <style>
      .cls-1 {
        fill: #fff;
      }

      .cls-2 {
        fill: #8c1515;
      }
    </style>
  </defs>
  <path class="cls-2" d="M73.78,168.82c-2.44,2.17-6.79,1.46-9.78,1.31-4.43-.22-8.87-.54-13.29-.94-9.21-.85-16.02-2.77-22.25-9.92-5.48-6.3-10.92-12.99-12.41-21.41-.71-3.99-1.09-7.96-2.15-11.9-1.13-4.16-2.64-8.25-3.29-12.53-1.35-8.92,2.92-17.79,6.55-25.69s7.31-14.87,11.73-21.86c8.78-13.89,20.9-22.99,35.75-29.68,17.37-7.83,35.93-13.44,53.96-19.54,6.06-2.05,3.46-11.71-2.66-9.64-18.87,6.38-38.17,12.36-56.35,20.55-17.36,7.82-30.83,19.18-40.73,35.51-5.02,8.29-9.34,16.99-13.11,25.91S-.81,107.19,1.15,117.21c.93,4.77,2.72,9.32,3.79,14.06,1.16,5.12,1.23,10.4,3.13,15.35,3.14,8.16,9.45,16,15.58,22.17,8.05,8.12,18.03,9.63,28.97,10.57,9.15.79,20.73,3.21,28.24-3.47,4.82-4.28-2.27-11.34-7.07-7.07h0Z"/>
  <path class="cls-2" d="M4.68,115.5c-5.94,15,.81,30.11,10.35,41.82l7.07-7.07c-6.6-5.9-7.75-16.89-9.91-25.04-1.26-4.76-2.98-9.63-1.95-14.58s4.13-9.59,6.88-13.88c3.48-5.43-5.17-10.45-8.63-5.05-3.23,5.04-6.54,10.36-7.89,16.27-1.42,6.21-.11,12.05,1.47,18.08,2.76,10.52,4.42,23.64,12.96,31.28,4.87,4.36,11.1-2.13,7.07-7.07-7.45-9.13-12.37-20.5-7.78-32.09,2.37-5.98-7.3-8.58-9.64-2.66h0Z"/>
  <path class="cls-2" d="M14.4,97.48c1.39-20.57,12.24-38.63,28.86-50.6,16.53-11.9,36.31-19.68,55.67-25.58,20.47-6.23,41.66-9.95,63.04-10.98,10.45-.5,20.94-.39,31.38.36s22.13,1.46,32.24,5c5.47,1.92,10.03,5.61,14.71,8.9s10.05,6.2,15.25,9.05c9.27,5.08,19.25,11.05,22,22.01,1.56,6.24,11.21,3.6,9.64-2.66-2.43-9.69-9.25-16.96-17.31-22.47-4.96-3.4-10.39-6.02-15.61-8.96s-9.6-6.22-14.37-9.46c-9.82-6.68-20.71-8.51-32.28-9.98C195.76.58,183.8-.11,171.84.02c-23.15.25-46.35,3.5-68.67,9.64s-44.22,14.36-62.95,27.18C19.51,51,6.11,72.21,4.4,97.48c-.43,6.42,9.57,6.4,10,0h0Z"/>
  <path class="cls-2" d="M277.39,59.62c7.63,17.39,20.08,37.9,10.41,56.73-4.09,7.96-10.33,16.21-18.32,20.58s-17.43,4.3-26.21,4.96c-9.57.71-18.95,2.36-27.92,5.89-8.46,3.33-16.22,7.95-23.99,12.6-8.37,5.01-16.78,9.82-26.22,12.52s-19.63,3.61-29.61,3.75c-10.85.15-22.3.24-32.73-3.14-9.63-3.13-19.04-10.4-29.51-6.02-4.64,1.94-4.79,7.74,0,9.64,7.64,3.03,15.73-.17,20.32-6.66,3.72-5.26-4.94-10.27-8.63-5.05-2.18,3.08-5.78,3.35-9.02,2.06v9.64c5.26-2.19,10.07.07,14.96,2.23s9.34,4.06,14.41,5.17c10.14,2.22,20.81,2.29,31.14,2.11,10.52-.19,21.19-1.19,31.34-4.09s18.52-7.51,27.13-12.65,17.52-10.77,27.3-14.01c10.17-3.38,20.43-3.72,30.98-4.72,9.28-.88,18.29-2.86,25.85-8.6,7.37-5.6,13.68-13.61,17.75-21.91,5.02-10.24,6.05-20.92,2.95-31.92-3.3-11.71-8.87-23.04-13.75-34.15-2.58-5.88-11.2-.8-8.63,5.05h0Z"/>
  <path class="cls-2" d="M96.26,166.49c-3.41-8.85-7.5-18.74-5.11-28.37s11.56-14.12,19.74-17.93c19.22-8.96,39.7-15.06,60.6-18.59l-5.65-2.3-.15-1.76,9.32,2.52c-.47-7.17-5.69-12.36-12.76-13.41-7.55-1.12-15.53,2.11-22.5,4.71-15.23,5.69-29.2,13.73-41.96,23.78-5.05,3.98,2.07,11.01,7.07,7.07,9-7.09,18.9-13.07,29.32-17.82,4.13-1.88,30.19-13.88,30.82-4.34.32,4.84,6.64,6.94,9.32,2.52,1.76-2.9,1.6-5.35.15-8.33-1.03-2.12-3.56-2.65-5.65-2.3-23.55,3.99-47.48,11.06-68.61,22.38-8.87,4.75-16.62,11.71-18.88,21.91-2.51,11.37,1.23,22.39,5.28,32.91,2.29,5.94,11.96,3.36,9.64-2.66h0Z"/>
  <path class="cls-2" d="M91.87,121.16c-10.36,11.32-7.01,28.62.17,40.73,7.31,12.33,19.59,21.39,33.59,24.5,6.27,1.39,8.95-8.25,2.66-9.64-10.57-2.34-20-8.5-26.1-17.51-5.53-8.16-11-22.54-3.25-31,4.34-4.74-2.72-11.83-7.07-7.07h0Z"/>
  <path class="cls-2" d="M91.78,165.79c2.24,3.37,4.65,6.61,7.18,9.77l4.86-8.36c-.57-.22-.69-.25-.34-.09-.33-.15-.66-.32-.98-.5-.48-.27-.96-.55-1.4-.88.42.32-.69-.65-.67-.63-.26-.26-.52-.52-.76-.8-.4-.46-.48-.56-.23-.29-1.57-2.19-4.36-3.25-6.84-1.79-2.17,1.27-3.37,4.63-1.79,6.84,2.66,3.71,6.03,6.3,10.36,7.79,2.07.71,4.58-.47,5.65-2.3,1.21-2.06.62-4.3-.78-6.06-1.98-2.49-3.84-5.09-5.61-7.74-1.5-2.24-4.41-3.21-6.84-1.79-2.23,1.3-3.3,4.58-1.79,6.84h0Z"/>
  <path class="cls-2" d="M78.36,152.18c-3.45,3.8-7.28,6.83-11.77,9.31-4.13,2.27-2.53,7.63,1.19,9.14,3.06,1.23,6.41,2.17,9.73,1.55,1.32-.25,2.67-.69,3.84-1.37,1.11-.64,3-3.25,4.31-3.2l-2.52-9.32c-8.23,4.51-17.11,7.52-26.44,8.7-6.3.79-6.38,10.8,0,10,11.16-1.41,21.61-4.65,31.48-10.06,4.51-2.47,2.25-9.13-2.52-9.32-2.84-.11-5.1.87-7.28,2.66-3.01,2.45-4.34,2.17-7.94.72l1.19,9.14c5.2-2.86,9.81-6.48,13.8-10.87,4.32-4.75-2.73-11.84-7.07-7.07h0Z"/>
  <path class="cls-2" d="M16,142.59c-1.8-26.87-1.33-54.31,16.39-76.26,16.91-20.94,41.89-32.68,65.87-43.55,5.85-2.65.78-11.27-5.05-8.63-25.7,11.64-52.04,24.54-69.68,47.38C5.28,85.16,4.08,113.94,6,142.59c.43,6.39,10.43,6.43,10,0h0Z"/>
  <path class="cls-2" d="M251.04,31.63c7.6,6.63,14.81,21.39,2.06,27.12l5.05,8.63c4.12-2.29,8.86-3.68,12.88-6.02,2.21-1.29,1.73-.64,3.96,1.32l5.31,4.67c4.81,4.24,11.91-2.81,7.07-7.07-4.15-3.65-9.23-10.43-15.4-9.6s-13.33,4.99-18.87,8.07c-5.74,3.19-.7,11.22,5.05,8.63,7.52-3.38,11.95-11.47,12-19.57.06-9.21-5.33-17.39-12.04-23.25-4.83-4.21-11.93,2.83-7.07,7.07h0Z"/>
  <path class="cls-2" d="M279.36,52.66c-3.55-4.74-7.18-9.41-10.89-14.02-1.7-2.1-5.31-1.77-7.07,0-2.08,2.08-1.7,4.96,0,7.07,3.18,3.95,6.29,7.94,9.33,12,1.62,2.16,4.32,3.27,6.84,1.79,2.13-1.24,3.42-4.67,1.79-6.84h0Z"/>
  <path class="cls-2" d="M266.44,57.57c2.43,1.02,4.69,2.52,6.67,4.25,1.62-2.79,3.24-5.57,4.86-8.36-3.78-1.47-7.72-1.57-11.66-.76-2.65.54-4.17,3.67-3.49,6.15.78,2.84,3.48,3.93,6.15,3.49,3.5-.57,6.88-.24,9.24,2.6,1.72,2.08,5.29,1.78,7.07,0,2.06-2.06,1.73-4.99,0-7.07-4.71-5.68-12.16-6.28-18.96-5.17l2.66,9.64c2.24-.46,4.24-.06,6.35.76,4.65,1.81,8.51-5.17,4.86-8.36-3.37-2.95-6.96-5.09-11.08-6.82-2.49-1.04-5.5,1.12-6.15,3.49-.79,2.88.99,5.1,3.49,6.15h0Z"/>
  <path class="cls-2" d="M270.39,61.53c9.08,2.19,14.05,17.01,16.32,24.89,1.4,4.87,2.35,9.87,2.82,14.91.51,5.38,1.32,11.79-1.05,16.81l9.14,1.19c-1.17-4.04-.11-8.47-.07-12.62.04-4.44-.32-8.85-.94-13.24-1.21-8.47-3.72-16.46-7.2-24.26-2.62-5.87-11.24-.79-8.63,5.05,3.42,7.68,5.69,15.98,6.45,24.36.69,7.65-1.38,15.99.76,23.39,1.11,3.84,7.23,5.24,9.14,1.19,5.69-12.05,2.58-28.74-1.23-41.01-3.47-11.16-10.2-27.24-22.83-30.29-6.25-1.51-8.92,8.13-2.66,9.64h0Z"/>
  <path class="cls-2" d="M60.77,175.43c8.51-1.8,14.24-4.99,18.86-12.51,5.35-8.71,10.1-17.83,14.57-27.01,2.81-5.76-5.81-10.84-8.63-5.05-3.64,7.48-7.51,14.84-11.66,22.05-1.77,3.08-3.39,6.96-6.1,9.32s-6.42,2.87-9.7,3.56c-6.29,1.33-3.63,10.97,2.66,9.64h0Z"/>
  <path class="cls-2" d="M164.51,174.43c-5.66,1.14-12,2.98-16.74,6.39-5.14,3.7-5.91,8.95-4.74,14.86.92,4.63,8.97,4.91,9.64,0,.49-3.52,1.06-4.77,4.06-6.62s5.8-3.58,8.95-4.84c2.52-1.02,4.24-3.33,3.49-6.15-.63-2.39-3.65-4.5-6.15-3.49-4.66,1.88-9.1,4.26-13.28,7.07s-6.03,6.44-6.71,11.38h9.64c-.68-3.45.76-4.25,3.78-5.64,3.41-1.57,7.04-2.57,10.71-3.31,6.3-1.27,3.64-10.91-2.66-9.64h0Z"/>
  <path class="cls-2" d="M144.13,189.45c.34,10.74,3.19,21.63,11.59,28.91,7.86,6.82,18.2,9.57,26.55,15.66v-8.63c1.11-.53-2.84-3.18-3.21-3.4-1.88-1.12-4.03-1.81-6.07-2.56-4.82-1.78-8.24-5.06-12.02-8.44-6.5-5.82-17.81-13.49-14.47-23.59,2.02-6.13-7.63-8.75-9.64-2.66-4.86,14.72,8.05,25.27,17.75,33.95,5.23,4.68,9.91,8.07,16.44,10.63,6.07,2.38,9.15,8.08,16.27,4.7,3.72-1.77,2.74-6.64,0-8.63-6.85-5-15.02-7.59-22.04-12.27-8.17-5.45-10.84-14.23-11.14-23.67-.2-6.42-10.2-6.45-10,0h0Z"/>
  <path class="cls-2" d="M124.29,186.91c5.71.09,8.79,10.16,11.78,14.03,4.04,5.24,8.84,10.01,13.62,14.58,4.44,4.24,9.15,8.22,14.17,11.75,5.28,3.71,11.05,7.6,17.72,7.61,2.74,0,4.95-2.3,5-5,.04-2.14-.37-3.44-1.32-5.35-2.86-5.77-11.49-.71-8.63,5.05l-.05.3,5-5c-6.13-.01-13.27-6.44-17.77-10.15-5.08-4.2-9.78-8.83-14.31-13.61-2.39-2.53-4.83-5.05-6.77-7.96-1.71-2.57-2.93-5.42-4.66-7.98-3.27-4.84-7.79-8.19-13.78-8.28-6.44-.1-6.44,9.9,0,10h0Z"/>
  <path class="cls-2" d="M197.27,159.01l-4.25,5.73c-.93,1.26-2.39,4.39-3.85,4.95-1.32.5-3.87-.41-5.33-.39-1.78.03-3.69.31-5.26,1.24-7.76,4.6-2.26,13.73,2.71,17.85,3.76,3.12,9.57.25,8.36-4.86l-.28-1.18c-1.49-6.26-11.13-3.61-9.64,2.66l.28,1.18,8.36-4.86c-.88-.73-1.94-2.17-2.95-2.69-.58-1.75-1.25-1.53-2.02.66h1.2c2.16,1.24,7.24.24,9.21-.8,5.19-2.75,8.69-9.85,12.09-14.43,3.83-5.17-4.84-10.17-8.63-5.05h0Z"/>
  <path class="cls-2" d="M185.36,176.51c4.73-4.59,9.45-9.09,16.15-10.34,6.32-1.18,3.64-10.82-2.66-9.64-8.33,1.56-14.66,7.2-20.56,12.92-4.63,4.49,2.45,11.55,7.07,7.07h0Z"/>
  <path class="cls-2" d="M193.85,159.97c-8.86.94-16.75,7.26-18.29,16.32-.45,2.66.7,5.38,3.49,6.15,2.4.66,5.7-.82,6.15-3.49.74-4.36,3.97-8.48,8.64-8.98,2.69-.28,5-2.09,5-5,0-2.48-2.3-5.29-5-5h0Z"/>
  <path class="cls-2" d="M172.87,177.91c0,7.7,6.5,11.64,11.67,16.25,6.39,5.69,12.23,11.91,17.62,18.56,3.59,4.43,10.83-1.3,7.85-6.06-5.55-8.88-18.69-18.67-14.43-30.38,2.2-6.06-7.46-8.67-9.64-2.66-5.65,15.53,8.11,26.36,15.44,38.08l7.85-6.06c-4.27-5.27-8.82-10.28-13.72-14.97-2.34-2.24-4.76-4.39-7.24-6.48-1.82-1.54-5.4-3.61-5.4-6.29,0-6.43-10-6.45-10,0h0Z"/>
  <path class="cls-2" d="M202.83,212.94c1.81,2.96,2.95,6.03,3.23,9.5.52,6.36,10.46,6.45,10,0-.35-4.93-.97-16.84-9.22-12.71-5.63,2.82-3.25,11.11-1.15,15.45s7.11,11.6,12.98,7.86c2.92-1.86,3.11-5.09,2.42-8.14-.73-3.26-1.35-6.21-.85-9.59.4-2.69-.67-5.34-3.49-6.15-2.35-.68-5.75.83-6.15,3.49s-.68,5.37-.43,8.12c.11,1.27.29,2.53.53,3.78.11.61.24,1.22.41,1.81.26,1.64.5,1.58.73-.17l2.99-2.3c1.52-.59,2.52,1.21.98-1.15-.54-.83-1.09-1.71-1.47-2.62-.29-.69-.54-1.44-.7-2.17-.16-.52-.23-1.06-.21-1.6.06-1.57-.46-.9-1.53,2l-3.85.5.64.19-3.49-3.49c.76,2.1.73,4.65.88,6.87h10c-.43-5.25-1.84-10.04-4.6-14.55-3.35-5.48-12-.46-8.63,5.05h0Z"/>
  <path class="cls-2" d="M201.55,210.97c9.72,8.17,22.15,11.02,34.67,10.34,14.31-.79,24.54-9.42,33.68-19.81,8.45-9.6,18.48-20.91,22.12-33.38,4.19-14.36.99-29.55,4.25-44.03,1.41-6.27-8.23-8.94-9.64-2.66-2.68,11.89-1.31,23.97-2.65,35.98-1.43,12.7-9.03,22.13-16.78,31.8-6.48,8.08-15.26,19.28-25.96,21.51-10.73,2.23-24.06.36-32.61-6.83-4.9-4.12-12.01,2.92-7.07,7.07h0Z"/>
  <path class="cls-2" d="M283.47,140.16c3.02,3.02,3.66,6.92,2.24,10.88l9.82,1.33c.67-5.98-.04-12-2.03-17.67-2.12-6.03-11.78-3.44-9.64,2.66,1.74,4.95,2.26,9.8,1.68,15.01-.66,5.93,8.04,6.28,9.82,1.33,2.58-7.19.54-15.25-4.81-20.61-4.56-4.56-11.63,2.51-7.07,7.07h0Z"/>
  <path class="cls-2" d="M287.61,133.8c-5.21-.9-10.39-.12-14.73,3.05s-1.97,10.86,3.85,9.14c2.36-.7,4.71-1.02,7.16-.61l1.33-9.82c-3.75.35-6.91-.75-10.45,1.22-4.89,2.72-1.61,10.9,3.85,9.14,2.22-.71,5.63.75,6.6,2.83l-.68-2.52.04.68c.35,6.4,10.35,6.44,10,0-.44-8.02-11.7-12.86-18.61-10.64l3.85,9.14c1.13-.63,4.02.28,5.4.15,2.47-.23,4.6-1.72,4.91-4.34.27-2.24-1.1-5.08-3.58-5.49-4.25-.7-8.32-.62-12.48.61l3.85,9.14c2.07-1.51,4.4-2.49,7.02-2.04s5.39-.71,6.15-3.49c.66-2.41-.82-5.69-3.49-6.15h0Z"/>
  <path class="cls-2" d="M276.38,135.46c-10.66,7.95-25.83,8.38-38.53,10.46-6.91,1.13-13.82,2.27-20.73,3.4-6.23,1.02-12.48,1.82-17.82,5.44-4.66,3.16-1.82,10.42,3.85,9.14,9.6-2.18,19.19-4.41,28.76-6.69,6.26-1.49,3.61-11.14-2.66-9.64-9.58,2.29-19.16,4.52-28.76,6.69l3.85,9.14c5.26-3.57,12.14-3.89,18.26-4.9,7.22-1.18,14.45-2.37,21.67-3.55,12.58-2.06,26.58-2.97,37.15-10.85,5.1-3.8.12-12.49-5.05-8.63h0Z"/>
  <path class="cls-2" d="M277.48,157.97c3.22,0,3.22-5,0-5s-3.22,5,0,5h0Z"/>
  <path class="cls-2" d="M206.45,186.69c-.06-.06-.11-.11-.17-.18l.39.51c-.06-.08-.11-.17-.15-.26l.25.6c-.04-.12-.07-.23-.09-.35l.09.66c-.01-.12-.01-.24,0-.37l-.09.66c.02-.14.06-.28.11-.41l-.25.6c.04-.09.09-.18.15-.26l-.39.51c.06-.08.13-.15.21-.22l-.51.39c.08-.06.17-.11.27-.16l-.6.25c.1-.04.2-.06.3-.08l-.66.09c.1,0,.21,0,.31,0l-.66-.09c.15.02.28.06.42.12l-.6-.25c.12.05.22.12.32.19l-.51-.39c.08.07.15.14.22.22l-.39-.51c.08.1.14.2.19.32l-.25-.6c.03.08.05.16.07.24l-.09-.66c.02.12.02.24,0,.37l.09-.66c-.02.12-.05.24-.09.35l.25-.6c-.06.14-.13.27-.22.39l.39-.51c-.11.14-.23.26-.37.37l.51-.39c-.13.09-.26.17-.4.23l.6-.25c-.22.09-.44.14-.67.18l.66-.09c-.32.04-.64.02-.96-.02l.66.09c-.35-.05-.68-.13-1.01-.26l.6.25c-.19-.08-.36-.17-.52-.29l.51.39c-.14-.11-.26-.22-.36-.36l.39.51c-.09-.13-.17-.26-.23-.41l.25.6c-.07-.17-.11-.34-.14-.52l.09.66c-.03-.23-.03-.46,0-.69l-.09.66c.03-.21.09-.41.16-.61l-.25.6c.08-.19.18-.37.31-.54l-.39.51c.16-.2.34-.37.54-.53l-.51.39c.23-.17.47-.3.73-.42l-.6.25c.34-.14.69-.23,1.05-.28l-.66.09c.42-.05.83-.06,1.25,0l-.66-.09c.29.04.57.12.84.23l-.6-.25c.17.08.32.16.47.27l-.51-.39c.14.11.27.23.38.37l-.39-.51c.08.11.14.22.19.34l-.25-.6c.05.12.08.24.1.37l-.09-.66c.02.15.02.3,0,.45l.09-.66c-.02.12-.05.24-.1.36l.25-.6c-.04.09-.09.18-.15.26l.39-.51c-.05.06-.11.12-.17.17l.51-.39s-.07.05-.1.07c-.54.36-.97.86-1.15,1.49-.16.6-.09,1.4.25,1.93s.86,1,1.49,1.15,1.36.12,1.93-.25c.79-.52,1.42-1.27,1.64-2.21.18-.73.18-1.55-.07-2.27-.34-.97-.94-1.7-1.79-2.27-.51-.35-1.15-.59-1.76-.69s-1.27-.18-1.92-.11c-.41.05-.84.09-1.24.2s-.8.28-1.18.45c-1.32.59-2.27,1.76-2.74,3.1-.13.37-.16.76-.2,1.14-.03.21-.03.41-.01.62.07.78.23,1.54.68,2.21.54.8,1.24,1.35,2.12,1.73.74.31,1.48.45,2.28.51,1.73.12,3.42-.69,4.34-2.16.55-.88.67-1.91.48-2.91-.04-.19-.11-.35-.19-.54-.07-.16-.13-.34-.22-.49-.27-.44-.56-.74-.96-1.05-.42-.33-.76-.5-1.29-.69-.1-.03-.2-.05-.31-.07-.3-.05-.61-.11-.91-.1-.63.03-1.12.16-1.68.45-.26.13-.5.33-.72.52-.08.07-.15.14-.21.22-.4.49-.65.89-.85,1.51-.06.19-.08.4-.1.6s-.06.38-.06.58c.03.99.4,2,1.14,2.69.48.45,1.1.73,1.77.73.61,0,1.35-.27,1.77-.73s.76-1.1.73-1.77-.24-1.32-.73-1.77h0Z"/>
  <path class="cls-2" d="M278.14,153.83s-.07-.02-.1-.03l.6.25c-.06-.03-.12-.06-.18-.1l.51.39s-.08-.07-.12-.12l.39.51c-.05-.06-.09-.13-.12-.2l.25.6c-.04-.1-.07-.2-.08-.3l.09.66c-.01-.11-.01-.21,0-.32l-.09.66c.02-.11.04-.21.08-.31l-.25.6c.04-.09.08-.17.14-.24l-.39.51c.04-.05.09-.1.15-.15l-.51.39c.06-.04.12-.08.18-.11l-.6.25c.07-.03.14-.05.21-.06l-.66.09c.09-.01.18-.01.27,0l-.66-.09c.09.01.18.04.26.07l-.6-.25c.12.05.22.11.32.19l-.51-.39c.1.08.19.17.26.27l-.39-.51c.07.09.12.18.17.29l-.25-.6c.04.1.07.21.09.31l-.09-.66c.01.09.01.19,0,.28l.09-.66c-.02.11-.04.21-.08.31l.25-.6c-.05.11-.11.22-.18.31l.39-.51c-.09.11-.18.2-.29.29l.51-.39c-.13.09-.26.17-.4.23l.6-.25c-.13.05-.27.09-.41.11l.66-.09c-.16.02-.31.02-.47,0l.66.09c-.15-.02-.29-.06-.43-.12l.6.25c-.15-.07-.29-.15-.43-.25l.51.39c-.16-.13-.3-.27-.42-.43l.39.51c-.12-.16-.22-.34-.31-.53l.25.6c-.06-.14-.11-.28-.14-.43-.14-.6-.63-1.19-1.15-1.49-.29-.18-.6-.28-.93-.3-.33-.07-.66-.06-1,.04-.6.2-1.19.57-1.49,1.15-.32.61-.41,1.25-.25,1.93.19.82.62,1.5,1.15,2.14s1.27,1.04,2.03,1.3,1.68.24,2.4-.01c.33-.12.71-.26,1.01-.46.57-.39.87-.69,1.26-1.24.6-.83.7-1.91.5-2.88-.08-.38-.24-.75-.45-1.07-.37-.56-.71-.89-1.25-1.27-1.58-1.11-4.03-.56-4.91,1.19-.43.85-.6,1.87-.3,2.8.36,1.11,1.16,1.98,2.3,2.3.62.17,1.37.07,1.93-.25.29-.16.53-.37.7-.64.22-.24.37-.52.45-.85.15-.64.11-1.36-.25-1.93s-.85-.97-1.49-1.15h0Z"/>
  <path class="cls-2" d="M220.19,193.96c12.37,2.13,24.72,1.42,36.67-2.51,6.09-2,3.48-11.66-2.66-9.64-10.18,3.35-20.77,4.33-31.35,2.51-6.29-1.08-9,8.55-2.66,9.64h0Z"/>
  <path class="cls-2" d="M217.2,204.88c8.3,2.78,17.6,1.96,25.98-.01,4.7-1.11,2.71-8.34-1.99-7.23-7.11,1.68-14.95,2.37-21.99.01-4.59-1.53-6.56,5.71-1.99,7.23h0Z"/>
  <path class="cls-2" d="M215.5,179.53c17.7.12,35.24-2.96,51.78-9.26,7.44-2.83,4.22-14.92-3.32-12.05-15.58,5.93-31.79,8.93-48.46,8.81-8.05-.06-8.05,12.44,0,12.5h0Z"/>
  <path class="cls-2" d="M48.03,88.64c3.22,0,3.22-5,0-5s-3.22,5,0,5h0Z"/>
  <path class="cls-2" d="M74.29,72.42c2.6-1.95,5.17-3.94,7.64-6.05,2.24-1.9,4.62-5.07,7.32-6.25l-7.52-4.32c.27,4.16-10.73,5.52-13.77,6.39-5.17,1.49-10.56,3.05-15.07,6.09-3.69,2.49-6.84,5.73-8.68,9.83-2.29,5.11-1.63,10.74-1.49,16.18l9.82-1.33c-.49-1.65-.73-3.03-.42-4.76l-7.34,2.99-1.04-.98c2.6,5.87,11.22.79,8.63-5.05-.53-1.21-1.39-1.99-2.55-2.6-2.6-1.37-6.76-.35-7.34,2.99-.62,3.53-.6,6.61.42,10.08,1.56,5.29,9.98,4.45,9.82-1.33s-1.19-11.55,3.4-15.92c4.1-3.9,10.04-5.26,15.32-6.77,8.22-2.36,21.02-4.57,20.28-15.8-.27-4.05-3.98-5.88-7.52-4.32-2.69,1.18-4.63,3.64-6.79,5.59-2.62,2.36-5.35,4.6-8.17,6.71-5.09,3.82-.11,12.5,5.05,8.63h0Z"/>
  <path class="cls-2" d="M52.44,96.71c3.03-6.54,6.43-16.76,13.24-20.35,3.99-2.1,9.16-1.27,13.49-1.03,5.23.29,10.45.72,15.67,1.14,6.41.52,6.38-9.48,0-10-10.51-.85-24.48-4.11-34.21,1.26-8.67,4.78-12.88,15.43-16.83,23.93-2.69,5.8,5.93,10.89,8.63,5.05h0Z"/>
  <path class="cls-2" d="M94.57,76.82c5.47-.71,11.21-.96,16.66.09s6.99,5.47,8.03,10.37l9.64-2.66c-3.46-9.64-10.25-13.97-20.28-15.06-11.17-1.21-22.03-1.6-32.85-5.05-6.15-1.96-8.78,7.69-2.66,9.64,7.88,2.51,16.02,3.78,24.24,4.53s18.59-.67,21.91,8.59c2.16,6.03,10.99,3.69,9.64-2.66s-4.63-13.41-10.7-16.09c-6.99-3.08-16.25-2.66-23.62-1.71-6.29.81-6.37,10.82,0,10h0Z"/>
  <path class="cls-2" d="M32.26,117.1c-5.36,2.96-9.8,7.14-10.7,13.45-.83,5.8,1.4,11.62,5.5,15.73,7.2,7.22,21.74,10.91,29.31,2.33,4.23-4.8-2.67-11.83-7.07-7.07-1.52,1.64-2.95,2.59-5.1,3.2-6.18,1.76-3.55,11.41,2.66,9.64,3.75-1.07,6.86-2.91,9.52-5.77l-7.07-7.07c-3.47,3.94-10.29,1.53-13.88-1.19-2.16-1.64-3.98-4.17-4.07-6.98-.12-3.92,2.87-5.93,5.96-7.64,5.63-3.11.6-11.75-5.05-8.63h0Z"/>
  <path class="cls-2" d="M34.88,117.24c-5.91,5.71-9.5,14.7-6.05,22.66,3.83,8.84,13.69,10.42,22.26,10.81,2.62.12,5.11-2.39,5-5-.08-1.98-.64-3.19-1.91-4.64-4.22-4.87-11.27,2.23-7.07,7.07l.41.48-1.46-3.54.03.63,5-5c-4.25-.19-10.88-.14-13.03-4.7-1.96-4.16.97-8.88,3.89-11.7,4.64-4.48-2.44-11.55-7.07-7.07h0Z"/>
  <path class="cls-2" d="M25.99,141.49c1.24,5.55,4.82,11.5,10.66,13,5.5,1.41,11.84.48,16.46-2.86,5.16-3.74.18-12.42-5.05-8.63-2.34,1.7-4.81,2.36-7.7,2.02-3.08-.36-4.12-3.49-4.72-6.19-1.4-6.28-11.05-3.62-9.64,2.66h0Z"/>
  <path class="cls-2" d="M37.48,132.14c1.27-1.68,2.5-3.41,3.96-4.93s3.12-2.49,4.91-3.52c5.58-3.21.55-11.85-5.05-8.63-2.5,1.44-4.92,3-6.94,5.09s-3.75,4.6-5.53,6.95c-1.63,2.16-.34,5.59,1.79,6.84,2.56,1.5,5.21.37,6.84-1.79h0Z"/>
  <path class="cls-2" d="M50.67,146.51c2.39-.61,4.03-2.36,5.82-3.92.09-.08.18-.16.27-.24,0,0,.31-.26.12-.11s.12-.09.13-.09c.16-.11.31-.22.48-.32.53-.33,1.08-.61,1.65-.87.4-.18.83-.36,1.39-.57.26-.1.52-.2.79-.28.17-.05.36-.11.54-.14-.27.04.08.02.16,0-.05.01-.38-.11-.1-.02.02,0,.32.1.33.09-.14.14-.47-.39-.49-.44-.04-.1,1.39-2.12,1.55-2.19-.11.05-.31-.11-.09,0s0,0-.1-.02c-.29-.05-.59-.1-.88-.12-1.54-.13-2.89.72-3.96,1.72-.89.82-1.75,1.7-2.5,2.65-.86,1.08-1.52,2.25-2.24,3.43-.19.32-.56.69-.9.9-.53.34-1.1.61-1.67.87-1.53.71-3.06,1.41-4.59,2.12-2.2,1.02-1.17,4.91,1.26,4.66,2.56-.27,4.91-1.12,6.96-2.71s4.17-4.3,3.1-7.08c-.48-1.26-1.68-2.13-3.08-1.75-1.21.33-2.23,1.81-1.75,3.08.17.44.03-.1.09.16.06.28.08-.22-.02.06-.05.16-.05.16.02,0l-.12.23c-.09.15-.18.3-.28.44.19-.25-.15.15-.19.19-.15.16-.3.31-.46.45-.13.12-.26.23-.39.34.25-.2-.13.09-.22.15-.32.22-.65.42-.99.6-.15.08-.31.16-.46.23-.36.17-.02.02-.24.1-.37.13-.73.25-1.11.34-.17.04-.34.08-.5.11-.78.17.44-.03-.36.06l1.26,4.66c1.53-.71,3.07-1.41,4.59-2.12,1.38-.64,2.69-1.41,3.66-2.61.48-.6.88-1.22,1.27-1.89.28-.49.78-1.33.98-1.59.43-.56.94-1.08,1.44-1.58.23-.24.47-.47.71-.7.12-.11.24-.22.35-.34.49-.48-.15.06.17-.14.39-.24.3-.12-.04-.05-.32.06-.26-.04-.02,0,.29.04.59.09.88.13.98.11,2-.15,2.73-.84,1.54-1.44,1.24-3.92-.25-5.28-2.74-2.49-6.58-.72-9.39.7-1.43.72-2.65,1.75-3.82,2.83-.27.25-.53.49-.8.73-.12.11-.24.21-.36.31-.32.27.46-.3-.15.12-.26.18-.52.33-.79.5-.38.23-.15.09-.03.04-.22.09-.44.15-.67.21-1.31.33-2.1,1.79-1.75,3.08s1.76,2.08,3.08,1.75h0Z"/>
  <path class="cls-2" d="M54.12,138.79c-2.11.99-4.91,1.72-7.17,1.89-1.34.1-2.67.06-4.01-.04-.81-.06-2.33-.44-3.13-.88-1.18-.65-2.73-.29-3.42.9s-.29,2.77.9,3.42c2.89,1.58,6.43,1.84,9.66,1.6,3.4-.25,6.62-1.13,9.7-2.57,1.22-.57,1.53-2.33.9-3.42-.73-1.25-2.19-1.47-3.42-.9h0Z"/>
  <path class="cls-2" d="M38.26,135.8c.85-3.56,2.35-7.73,5.38-10.03,2.8-2.12,6.48-2.88,9.75-3.98,4.13-1.39,8.19-2.99,12.18-4.76,3.64-1.62,7.36-3.24,9.51-6.8s2.4-7.71,2.58-11.66c.15-3.22-4.85-3.21-5,0-.14,3.01-.26,6.31-1.81,8.98-1.84,3.18-6.15,4.46-9.34,5.83-3.8,1.63-7.7,3.05-11.64,4.31-3.51,1.12-7.03,2.28-9.91,4.67-3.51,2.92-5.48,7.78-6.52,12.11-.75,3.13,4.07,4.46,4.82,1.33h0Z"/>
  <path class="cls-2" d="M30.7,125.79c.16-3.12,3.2-5.27,5.93-6.13,3.96-1.24,8.24-1.11,12.33-1.64,4.42-.57,8.79-1.4,13.08-2.61,3.81-1.08,7.48-2.79,9.3-6.53,1.09-2.23,1.84-4.64,2.7-6.96.92-2.47,1.84-4.94,2.76-7.42l-4.18,1.1c1.57,1.77,1.09,5,.97,7.17s-.36,4.85-1.85,6.64-4.28,2.11-6.51,2.43c-2.66.39-5.35.82-7.63,2.36-2.65,1.8-.15,6.13,2.52,4.32,2.45-1.66,5.56-1.64,8.38-2.17,3.25-.61,6.22-2.12,7.98-5.03s2.01-6.12,2.14-9.28c.15-3.56.02-7.17-2.47-9.97-1.35-1.52-3.57-.53-4.18,1.1-1.58,4.25-2.97,8.64-4.78,12.8-1.55,3.57-5.28,4.34-8.73,5.21-4.2,1.06-8.48,1.81-12.79,2.2s-8.89.52-12.93,2.47-6.82,5.56-7.05,9.94c-.17,3.22,4.84,3.21,5,0h0Z"/>
  <path class="cls-2" d="M58.37,119.27c3.74-.98,7.37-2.26,10.93-3.77l-2.52-4.32c-.52.39-1.06.74-1.62,1.05-.28.15-.58.29-.87.43s.47-.18.03-.01c-.16.06-.33.12-.49.18-.61.21-1.23.38-1.87.5-.14.03-.29.05-.43.07-.32.06.53-.05.05-.01-.35.03-.7.05-1.05.06-1.31.03-2.56,1.13-2.5,2.5s1.1,2.54,2.5,2.5c3.13-.08,6.26-1.07,8.78-2.95.54-.4.96-.82,1.15-1.49.16-.6.09-1.4-.25-1.93s-.86-1-1.49-1.15c-.7-.16-1.27-.03-1.93.25.6-.26-.19.08-.3.12-.18.07-.36.15-.54.22-.42.17-.85.33-1.27.5-.82.31-1.65.61-2.48.89-1.69.57-3.41,1.09-5.14,1.54-1.27.33-2.16,1.8-1.75,3.08s1.72,2.1,3.08,1.75h0Z"/>
  <path class="cls-2" d="M37.95,121.36c2.67-3.3,6.92-4.03,10.93-4.36,4.42-.37,8.75-.64,12.87-2.4,3.54-1.51,6.71-4.03,8.33-7.6.75-1.66,1.23-3.41,1.81-5.13.45-1.33.99-2.73,2.21-3.5,2.71-1.72.2-6.05-2.52-4.32-3.51,2.24-4.26,6.11-5.57,9.76-1.14,3.2-3.73,5.31-6.86,6.48-8.08,3.04-18.61-.02-24.73,7.53-.85,1.05-1.02,2.51,0,3.54.88.88,2.68,1.05,3.54,0h0Z"/>
  <path class="cls-2" d="M92.19,41.77c2.21-3.43,4.6-6.74,7-10.05.87-1.2,1.78-2.53,3.26-2.98s3.25-.1,4.75.35,2.74,1.02,3.59,2.31,1.27,2.76,1.71,4.21c.99,3.27,2.21,7.03.06,10.09h4.32c-2.51-3.56-2.68-8.23-5.88-11.4-3.42-3.38-8.68-3.11-11.9.42-1.42,1.56-1.94,3.81-3.68,5.06-.73.53-1.57.93-2.41,1.25-.39.15-.97.42-1.39.41-.27,0,.04.2.01-.03-.26-1.91,1.82-3.43,3.07-4.53,1.61-1.42,2.88-3.11,4.41-4.61,3.8-3.73,8.27,1.11,10.79,3.93l3.03-3.93c-3.85-2.33-8.95-2.95-13.08-.98-1.96.94-3.32,2.63-4.56,4.36-.99,1.39-2,3.13-3.75,3.61-3.09.86-1.78,5.69,1.33,4.82,1.96-.55,3.55-1.77,4.83-3.33,1.12-1.36,1.99-2.96,3.26-4.19,2.46-2.39,6.81-1.58,9.45.02s4.88-1.86,3.03-3.93c-3.47-3.86-8.09-7.96-13.73-6.44-2.47.67-4.19,2.48-5.79,4.35s-3.84,3.43-5.41,5.47c-1.69,2.2-2.65,5.37-1.2,7.95,1.52,2.72,4.61,2.79,7.22,1.78,2.47-.95,4.74-2.26,6.28-4.46,1.21-1.73,1.8-4.12,4.22-4.49,2-.31,3.38,1.97,4.09,3.5,1.22,2.62,1.75,5.49,3.45,7.89,1.13,1.6,3.19,1.6,4.32,0,2.94-4.19,1.82-9.42.44-13.94-.58-1.9-1.2-3.89-2.32-5.56-1.39-2.08-3.32-3.37-5.66-4.19-4.42-1.55-9.41-1.44-12.67,2.31-1.64,1.89-3.03,4.03-4.48,6.06s-2.94,4.19-4.33,6.35c-1.75,2.71,2.58,5.22,4.32,2.52h0Z"/>
  <path class="cls-2" d="M91.8,19.78c7.26-4.92,15.84-7.35,24.19-9.73,2.24-.64,4.51-1.24,6.82-1.54s4.65-.35,6.98-.46c4.82-.22,9.63-.48,14.45-.63,5.6-.18,11.2-.18,16.78.26,1.35.1,2.5-1.22,2.5-2.5,0-1.44-1.15-2.39-2.5-2.5-10-.78-20.03-.15-30.02.32-4.99.23-9.86.49-14.71,1.78-4.37,1.16-8.73,2.49-13.01,3.98-4.9,1.71-9.7,3.78-14,6.7-2.65,1.8-.15,6.13,2.52,4.32h0Z"/>
  <path class="cls-2" d="M116.63,16.55c4-.71,8.19-.74,12.19,0,1.65.3,3.47.57,4.72,1.79s2.04,2.86,2.8,4.39c1.82,3.64,3.4,7.47,4.77,11.31s2.01,7.55,1.39,11.61c-.34,2.21-.77,4.43-.73,6.67.04,2.43.75,4.36,1.7,6.55l-.25-1.93-.06.3,1.75-1.75-.13.04,1.93.25-.12-.08.9.9-.05-.12-.9,3.42.08-.06c1.07-.82,1.64-2.15.9-3.42-.62-1.05-2.34-1.72-3.42-.9l-.08.06c-1.18.91-1.48,2.03-.9,3.42.5,1.17,1.98,1.63,3.12,1.31.79-.22,1.58-.91,1.75-1.75.25-1.27-.11-1.95-.61-3.06-.38-.86-.54-1.84-.58-2.77-.1-2.1.3-4.15.61-6.22.7-4.8.16-9.24-1.46-13.8-1.53-4.31-3.32-8.63-5.38-12.72-.91-1.8-1.91-3.61-3.34-5.06-1.61-1.64-3.68-2.49-5.89-2.97-5.29-1.15-10.7-1.17-16.02-.22-1.33.24-2.08,1.86-1.75,3.08.39,1.4,1.74,1.98,3.08,1.75h0Z"/>
  <path class="cls-2" d="M174.85,5.02l-14.69,1.01c-2.36.16-4.74.26-7.09.51-2.2.23-4.42.64-6.27,1.91s-3.21,3.14-3.45,5.41.67,4.53,1.09,6.75.6,4.46.58,6.72c0,1.08-.06,2.16-.16,3.24-.05.55-.11,1.09-.2,1.64-.05.31-.1.61-.15.91-.11.5-.13.6-.05.33l1.49-1.15-.21.09,1.93.25-.12-.08,1.24,2.16v-.16c-.11.42-.23.84-.34,1.26l.07-.12-3.42.9.1.04c1.24.54,2.68.37,3.42-.9.62-1.06.35-2.88-.9-3.42l-.1-.04c-1.27-.55-2.63-.36-3.42.9-1.87,3,2.66,5.75,4.57,2.8.63-.97.68-2.24.84-3.36.18-1.29.31-2.59.37-3.9.11-2.55-.06-5.08-.42-7.61-.17-1.23-.4-2.44-.7-3.64-.23-.96-.77-2.17-.57-3.18.33-1.66,2.33-2.31,3.75-2.6,2.31-.47,4.78-.43,7.13-.59l15.67-1.08c1.35-.09,2.5-1.08,2.5-2.5,0-1.28-1.15-2.59-2.5-2.5h0Z"/>
  <path class="cls-2" d="M147.91,19.01c-.19-1.71-.47-3.56,0-5.24.44-1.54,1.76-2.38,3.03-3.22l-3.42-3.42c-1.75,3.57-2.75,7.44-2.82,11.42-.03,1.86.21,3.7.27,5.56.03.82.04,1.66-.06,2.47-.06.5-.34,1.03-.36,1.52.06-.15.02-.09-.13.19.2-.28.48-.44.82-.5-1.35-.1-2.5,1.22-2.5,2.5,0,1.44,1.15,2.4,2.5,2.5,2.48.19,3.92-2.19,4.38-4.31.49-2.24.36-4.5.2-6.77-.29-4.2.14-8.24,2.01-12.07.49-1.01.43-2.2-.39-3.03-.76-.76-2.11-.99-3.03-.39-2.22,1.45-4.15,3.01-5.12,5.56-.86,2.29-.67,4.83-.4,7.21.15,1.34,1.04,2.5,2.5,2.5,1.23,0,2.65-1.15,2.5-2.5h0Z"/>
  <path class="cls-2" d="M144.92,26.11c.27-2.39-.19-4.79-.7-7.11-.48-2.2-.97-4.39-1.46-6.59l-3.67,2.82c-.32-.23-.17-.18,0,.11.06.11.12.22.17.34-.07-.17-.07-.17,0-.01.26.64.47,1.3.68,1.96.4,1.29.74,2.6,1.02,3.92.56,2.59.93,5.28,1.27,7.85l4.91-.66c-.85-4.26-1.02-8.62-1.33-12.97-.08-1.15-.16-2.32-.31-3.46-.2-1.54-1.42-2.76-3.05-2.71-1.11.04-2.2.5-3.26.79-.87.24-1.8.48-2.45.39-1.23-.17-2.44.19-2.95,1.45-.44,1.08-.11,2.56,1.02,3.12,1.76.87,2.99,1.81,4.3,3.26.9,1,2.62.92,3.54,0,1-1,.91-2.53,0-3.54-1.5-1.66-3.31-3.04-5.31-4.04l-1.93,4.57c1.45.2,2.77.16,4.21-.16.56-.12,1.11-.28,1.66-.45.3-.09.6-.18.9-.27l.3-.08c.51-.11.39-.14-.35-.09l-1.1-.64.16.14-.64-1.1c.08.22.09.23.04.02.02.16.03.33.05.49.03.38.07.77.1,1.15.05.66.1,1.32.15,1.98.1,1.49.19,2.97.31,4.46.23,3.02.55,6.04,1.15,9.02.24,1.2,1.6,1.96,2.74,1.79s2.33-1.21,2.17-2.46c-.44-3.28-.86-6.58-1.59-9.81-.35-1.53-.77-3.04-1.29-4.52-.6-1.68-1.25-3.07-2.73-4.15-.79-.58-2.07-.37-2.78.2-.81.64-1.12,1.62-.9,2.63.46,2.09.93,4.18,1.39,6.26s.82,4.01.59,6.11c-.15,1.34,1.26,2.5,2.5,2.5,1.48,0,2.35-1.15,2.5-2.5h0Z"/>
  <path class="cls-2" d="M111.91,18.26c3.96-.09,7.88-.94,11.85-.86,2.72.05,5.75.61,7.8,2.55,2.42,2.28,3.58,5.98,4.67,9.04,1.25,3.5,1.67,7.06,1.74,10.76.08,3.91-.12,7.83.23,11.73.28,3.07.83,6.3,2.7,8.84s6.37,5.33,8.51,1.63c1.86-3.22-1.17-7.21-2.01-10.28-1.07-3.94.51-8.17,1.28-12.02.89-4.46,1.45-8.98,1.71-13.52.18-3.21-4.82-3.2-5,0-.17,2.97-.46,5.94-.93,8.88s-1.27,6.05-1.84,9.09-.84,6.12.03,9.11c.39,1.35,1,2.62,1.52,3.93.27.69.51,1.38.71,2.09,0,0,.19.62.09.35-.03.37,0,.4.07.07.05-.25.17-.46.38-.63l1.26-.34c-1.06.13-2.13-1.8-2.5-2.7-.76-1.86-.95-3.92-1.07-5.9-.3-4.99.15-10.01-.4-14.99-.54-4.94-2.22-9.67-4.4-14.12-2.03-4.16-5.48-7.04-10.03-8.05-5.46-1.2-10.88.21-16.36.34-3.21.07-3.22,5.07,0,5h0Z"/>
  <path class="cls-2" d="M135.82,27.28c1.03,5.06.43,10.27.94,15.39.26,2.62.76,5.18,1.78,7.62.64,1.53,1.76,3.08,3.68,2.6s2.48-2.42,1.69-4.04c-.59-1.21-2.32-1.54-3.42-.9-1.24.73-1.49,2.2-.9,3.42l.07.14v-2.52l-.09.16,1.49-1.15-.18.06,1.93.25-.24-.15.9.9c-1.88-3.1-1.88-7.41-1.96-10.91-.09-4.09-.05-8.17-.88-12.2-.27-1.32-1.84-2.09-3.08-1.75-1.38.38-2.02,1.75-1.75,3.08h0Z"/>
  <path class="cls-2" d="M149.44,22.17c-.82-1.85.1-4.43.89-6.13.89-1.92,2.16-3.73,4-4.83,2.2-1.32,4.97-1.49,7.46-1.86,3.05-.46,6.09-.92,9.14-1.38,1.34-.2,2.07-1.88,1.75-3.08-.39-1.43-1.74-1.95-3.08-1.75-3.57.54-7.14,1.07-10.7,1.62-3.19.49-6.15,1.23-8.7,3.29-4.56,3.68-7.52,11.1-5.07,16.65.55,1.23,2.35,1.52,3.42.9,1.27-.74,1.45-2.18.9-3.42h0Z"/>
  <path class="cls-2" d="M189.85,138.39c-.12.16-.21.33-.29.52-.23.22-.49.28-.8.19.11-.07.39.28.47.39.5.62.75,1.55,1.14,2.26.91,1.66,2.37,3.07,4.09,3.86,1.98.91,4.12,1.08,6.27,1.02s4.32-.19,6.47-.36l-1.77-4.27c-3.18,3.05-7.51,6.11-12.18,5.22-1.84-.35-3.53-1.32-4.52-2.92-.41-.66-.74-1.62-.76-2.19-.02-.38,0-.51.1-.85-.04.13.03-.36.03-.14,0-.18.36-.21,0-.08l-2.82-1.15c.84,1.1,1.03,2.51,1.72,3.7.74,1.29,1.86,2.33,3.1,3.14,2.64,1.72,5.88,1.99,8.94,2.22,1.35.1,2.5-1.22,2.5-2.5,0-1.44-1.15-2.4-2.5-2.5-2.19-.16-4.54-.3-6.41-1.54s-1.77-3.39-3.03-5.04c-.64-.84-1.71-1.55-2.82-1.15-3.38,1.22-4.39,4.95-3.42,8.18s3.39,5.66,6.38,6.93c7.02,2.97,14.23-.98,19.26-5.8,1.48-1.42.43-4.45-1.77-4.27-2.46.2-4.95.39-7.42.37-1.86,0-3.72-.33-4.82-1.97-.6-.89-.91-1.94-1.5-2.83-.74-1.11-1.77-2.07-3.06-2.48-2.58-.82-5.84,1.11-5.54,4.03.14,1.34,1.05,2.5,2.5,2.5,1.25,0,2.64-1.15,2.5-2.5h0Z"/>
  <path class="cls-2" d="M192.13,48.04c-.18-.17.38.7.27.98-.02.05-.31.39-.31.38-.03-.07,1.14-.11,1.17-.11,1.33-.02,2.63-.14,3.95-.33,2.45-.36,4.99-1.11,7.48-.79,4.69.6,7.65,5.36,10.46,8.63,1.62,1.88,3.43,3.88,5.9,4.56,1.17.32,2.43.34,3.64.45,1.34.12,2.67.33,4,.59,1,.19,2.08.37,3,.83.7.35.8.73,1.04,1.17s-.25.26.12.09c.32-.14-.14.03-.29.04-.2,0-.41,0-.61,0-1.38-.03-2.76-.15-4.13-.24-2.44-.16-4.96-.2-7.34-.81s-4.13-1.97-5.95-3.45c-.88-.71-1.77-1.44-2.51-2.29s-1.17-1.82-1.68-2.77c-1.15-2.15-2.7-3.95-5.11-4.66-3.89-1.14-9.07,1.48-12.51-1.25-.14-.11-.26-.33-.41-.4-.46-.21-.83.9-.52,1.28.06.07.3.17.56.27,1.26.48,2.45.98,3.79,1.24,2.55.5,5.14.52,7.7.81,1.14.13,2.4.3,3.44.8,1.13.54,1.56,1.64,2.07,2.71,1.14,2.41,2.75,4.32,4.99,5.79,4.88,3.19,10.8,3.06,16.3,4.18,1.32.27,2.7-.38,3.08-1.75.34-1.24-.42-2.8-1.75-3.08-5.22-1.06-11.86-.64-16.09-4.43-2.08-1.87-2.44-4.87-4.57-6.7-2.36-2.03-5.6-2.38-8.58-2.63s-5.86-.49-8.76-1.65-6.78-.04-6.67,3.59c.09,3.19,3.79,5.22,6.53,5.79s5.29.17,8.01.07c1-.03,2.1-.05,2.9.64.89.76,1.34,2.05,1.89,3.06,1.43,2.61,3.68,4.42,6,6.22,2.47,1.92,5.09,3.28,8.21,3.77s6.39.62,9.58.81c2.89.17,6.16-.19,7.09-3.48.82-2.91-.88-5.84-3.49-7.14s-5.94-1.66-8.88-1.96c-1.19-.12-2.62,0-3.65-.73-1.19-.85-2.18-2.1-3.11-3.2-2.17-2.56-4.19-5.19-6.93-7.18s-6.11-2.88-9.55-2.55c-1.73.17-3.43.51-5.14.8-1.56.26-3.12.2-4.69.36-1.73.18-3.31.88-4.16,2.48s-.64,3.52.67,4.74c2.34,2.2,5.88-1.32,3.54-3.54h0Z"/>
  <path class="cls-2" d="M249.82,84.21c3.3-1.45,6.61-3.19,10.1-4.14,1.37-.37,2.83-.61,4.23-.23s2.41,1.37,3.25,2.49c3.71,4.96,5.4,11.98,1.84,17.46h4.32c-2.6-5.46-4.91-11.74-9.53-15.86-2.09-1.86-4.68-3.36-7.46-3.84-1.53-.27-3.02-.3-4.55-.02-1.43.26-2.77,1.09-4.24.95l2.16,3.76c1.15-1.64,2.82-2.93,4.66-3.72.88-.38,1.85-.65,2.8-.8.4-.06.8-.08,1.2-.09.31,0,.62,0,.94.01.13,0,.25.01.37.02.33.03.25.01-.24-.06l-.9-.9c.89-1.43.92-1.95.09-1.55-1.28.44-2.12,1.72-1.75,3.08.4,1.45,1.73,1.93,3.08,1.75,2.25-.3,4.26,2.02,5.49,3.55s3.56,3.99,3.1,6.14h4.82c-1.86-5.46-5.91-9.62-11.24-11.76-1.25-.5-2.75.55-3.08,1.75-.39,1.43.49,2.57,1.75,3.08,3.61,1.45,6.5,4.61,7.75,8.26.74,2.18,4.27,2.57,4.82,0,.92-4.32-1.82-7.84-4.39-11.01s-6.07-5.41-10.36-4.84l1.33,4.82c1.21-.41,2.37-.98,3.03-2.14s.59-2.58-.13-3.66c-1.38-2.09-4.7-1.65-6.83-1.31-4.34.7-8.13,3.28-10.63,6.84-1.19,1.69.45,3.61,2.16,3.76,2.54.23,4.73-1.42,7.28-1.14,2.27.25,4.41,1.54,6.01,3.12,3.89,3.83,5.88,9.48,8.18,14.31.85,1.79,3.38,1.45,4.32,0,4.71-7.25,2.65-16.76-2.4-23.25-2.83-3.64-6.81-4.95-11.3-4.1s-8.52,3.17-12.54,4.93c-1.24.54-1.52,2.35-.9,3.42.75,1.28,2.18,1.44,3.42.9h0Z"/>
  <path class="cls-2" d="M153.89,116.28c-.06-.12-.29-.84-.38-.91-.21-.14.2.06-.18.25-.64.31-1.53-.05-.79.62.37.33.72.68,1.09,1.02,1.42,1.29,2.91,2.51,4.47,3.63,3.11,2.24,6.59,3.85,10.28,4.88,7.57,2.13,16,3.14,23.72,1.29,3.46-.83,6.85-2.28,9.7-4.41,3.19-2.38,5.63-5.49,8.12-8.56s5.15-6.45,7.66-9.74c1.25-1.63,2.48-3.27,3.71-4.92.9-1.21,1.88-2.48,3.18-3.29,3.36-2.1,8.14-1.99,11.94-1.61,2.17.21,4.33.72,6.39,1.41,1.51.5,3.3,1.18,4.31,2.48.82,1.07,2.15,1.64,3.42.9,1.05-.61,1.73-2.34.9-3.42-2.6-3.37-6.62-4.83-10.67-5.7-4.3-.93-8.7-1.07-13.05-.38-2,.32-4.03.93-5.76,2.01s-3.1,2.63-4.36,4.27c-2.59,3.38-5.11,6.8-7.75,10.14s-5.35,6.99-8.4,10.11c-2.73,2.79-6.08,4.66-9.84,5.67-3.97,1.07-8.1,1.15-12.18.75s-8.56-1.27-12.54-2.76-7.5-4.24-10.63-7.17c-1.8-1.69-4.39-2.81-6.44-.77-1.94,1.92-1.3,4.56-.22,6.72,1.44,2.88,5.76.35,4.32-2.52h0Z"/>
  <path class="cls-2" d="M247.12,99.87c3,.69,3.54,4.43,4.04,6.97.62,3.17,1.28,6.51.82,9.75s-2.32,5.59-4.78,7.61c-2.64,2.17-5.61,3.99-8.42,5.93l3.42,3.42c1.32-1.91,4.14-2.52,6.12-3.48,2.5-1.21,4.62-3.05,5.48-5.76.72-2.26-2.61-4.43-4.18-2.43-2.71,3.44-6.12,6.15-10.11,7.96-1.87.85-3.88,1.42-5.89,1.79-.12.02-.56.12-.55.1l.63.48c.56.15.77.48.62.97.16.17-.74.5.1.03.14-.08.18-.09.38-.21,1.01-.65,2.1-1.19,3.13-1.81,7.88-4.77,16.22-12.59,15.3-22.71-.44-4.89-2.96-9.58-7.36-11.98-2.83-1.54-5.35,2.78-2.52,4.32,3.55,1.93,5.16,5.93,4.91,9.85-.3,4.66-3.33,8.78-6.69,11.79-1.84,1.64-3.88,3.03-5.98,4.31s-5.18,2.34-6,4.84.94,5.35,3.73,5.11c2.33-.2,4.69-.9,6.86-1.76,5.07-2.02,9.6-5.23,12.98-9.53l-4.18-2.43c-.61,1.93-3.15,2.78-4.83,3.5-2.48,1.05-4.7,2.27-6.27,4.54-1.4,2.03,1.39,4.83,3.42,3.42,3.47-2.4,7.2-4.66,10.34-7.5s4.93-6.37,5.36-10.53-.42-8.23-1.27-12.17-2.93-8.2-7.28-9.2c-3.13-.72-4.47,4.1-1.33,4.82h0Z"/>
  <path class="cls-2" d="M248.47,127.6c5.52-6.85,4.69-16.36-.42-23.2-2.65-3.55-6.08-6.53-10.2-8.24s-8.62-1.98-12.93-.97c-3.13.73-1.81,5.56,1.33,4.82,6.82-1.6,13.41,1.56,17.55,7,3.63,4.77,5.2,12.01,1.13,17.05-.85,1.05-1.03,2.51,0,3.54.88.88,2.68,1.06,3.54,0h0Z"/>
  <path class="cls-2" d="M228.73,98.36c2.65-.07,5.31-.07,7.96-.01,1.31.03,2.62.07,3.93.14.26.01.52.03.79.05,0,0,.8.1.38.03.26.04.51.09.76.16.17.04.33.09.49.15-.2-.1-.16-.08.12.06l-.51-3.93c-.34.39.37-.17.61-.18-1.3.06-2.56,1.11-2.5,2.5.06,1.3,1.1,2.56,2.5,2.5,1.11-.05,2.17-.44,2.92-1.28.99-1.12,1.02-3.17-.51-3.93-2.59-1.28-5.56-1.18-8.38-1.26s-5.71-.07-8.57,0c-1.31.03-2.56,1.13-2.5,2.5s1.1,2.54,2.5,2.5h0Z"/>
  <path class="cls-2" d="M222.79,104.03c5.56-4.18,13.04-3.13,17.77,1.79,2.3,2.39,3.98,5.65,4.02,9.01s-1.56,6.22-4,8.26c-1.58,1.32-3.55,2.1-5.18,3.36-1.87,1.43-3.24,3.28-4.6,5.18-.79,1.1-.19,2.78.9,3.42,1.26.73,2.63.2,3.42-.9,1.23-1.72,2.49-3.29,4.31-4.42s3.8-2.19,5.4-3.74c2.96-2.89,4.81-7,4.76-11.15-.1-8.52-7.18-16.56-15.5-18.11-4.78-.89-9.9.04-13.82,2.99-1.08.81-1.63,2.16-.9,3.42.62,1.06,2.33,1.71,3.42.9h0Z"/>
  <path class="cls-2" d="M222.8,94.87c-2.52,2.18-4.31,4.97-5.43,8.11-.95,2.66,3.28,4.44,4.57,1.93.45-.88.95-1.72,1.59-2.48l-4.27-1.77c0,1.4-1.75,2.95-2.57,3.97-1.28,1.59-2.6,3.14-3.95,4.67-2.62,2.96-5.33,5.89-8.26,8.54-2.6,2.36-5.65,4.22-8.91,5.5-1.73.68-3.5,1.24-5.3,1.69-.83.21-1.67.4-2.51.57-.38.08-.91.08-1.26.24-.64.29-.46-.16-.07.26-2.18-2.38-5.71,1.17-3.54,3.54,1.65,1.8,4.09,1.21,6.2.78s4.18-.97,6.2-1.67c4.27-1.48,8.24-3.57,11.7-6.49s6.7-6.5,9.74-9.97c1.55-1.77,3.06-3.58,4.52-5.43s3.01-3.7,3.01-6.22c0-2.03-2.83-3.48-4.27-1.77-.91,1.09-1.72,2.23-2.37,3.49l4.57,1.93c.83-2.33,2.28-4.29,4.14-5.9,1.02-.88.91-2.63,0-3.54-1.01-1.01-2.51-.89-3.54,0h0Z"/>
  <path class="cls-2" d="M148.64,113.71c-1.1,4.45.32,9.01,2.92,12.69,1.35,1.91,2.89,3.69,4.87,4.97,1.86,1.21,4.07,1.89,6.24,2.31,9.4,1.82,19.63,1.43,28.6-2.07,4.86-1.9,9.31-4.57,13.13-8.13,2.36-2.2-1.18-5.73-3.54-3.54-5.68,5.29-13.14,8.39-20.8,9.39-4.22.55-8.53.49-12.75.02-3.62-.4-7.42-.99-10.02-3.77s-4.77-6.71-3.81-10.54c.77-3.12-4.05-4.46-4.82-1.33h0Z"/>
  <path class="cls-2" d="M184.12,125.98l-8.39.27c-2.82.09-5.41.06-8.1-.88-2.41-.84-4.64-2.14-6.85-3.4-.95-.54-1.94-1.06-2.67-1.89-.83-.94-1.39-2.07-2.32-2.93-2.1-1.95-5.23.5-3.93,3.03,2.56,4.95,6.63,10.62,12.99,9.92,1.34-.15,2.5-1.04,2.5-2.5,0-1.24-1.15-2.65-2.5-2.5-4.51.5-6.91-4.03-8.67-7.44l-3.93,3.03c.92.85,1.47,2.01,2.32,2.93.93,1.01,2.14,1.78,3.32,2.46,2.57,1.49,5.19,2.93,7.98,3.96s5.83,1.33,8.88,1.24,6.24-.2,9.35-.3,3.22-5.1,0-5h0Z"/>
  <path class="cls-2" d="M157.49,130.41c.69.74-1.15,1.93-1.82,2.21-2.2.92-4.73,1.35-7.06,1.83-5.08,1.06-10.32,1.44-15.33,2.86-4.23,1.2-8.46,3.27-11.42,6.61-2.99,3.36-4.5,7.8-3.97,12.3.29,2.44,1.04,4.85,2.42,6.91,1.53,2.3,3.71,4.01,5.41,6.16l3.03-3.93c-1.87-1.24-3.29-2.91-4.33-4.89-.58-1.09-2.03-1.5-3.12-1.02-1.23.54-1.64,1.68-1.45,2.95.98,6.44,7.75,8.78,13.24,9.98,3.13.69,4.46-4.02,1.33-4.82-2.01-.51-4.03-.97-6.07-1.36s-4.14,1.72-2.82,3.67,3.4,2.74,5.7,3.07c2.41.34,4.85.57,7.28.41,5.16-.34,9.53-2.28,13.11-6.02,1.7-1.77,3.48-3.69,4.62-5.89s1.9-5.16.63-7.4c-1.77-3.14-5.57-.44-7.74.64-2.44,1.21-4.87,2.45-7.34,3.61s-4.95,2.12-7.63,2.01c-.13,0-.7,0-.7-.06,0,.03.25.22.3.15.1-.1-.54-2.01-.58-2.28-.1-.66-.17-1.41-.08-2.08.05-.38.28-.55-.03-.53l-2.16-3.76c-.49.82-1.08,1.4-1.89,1.89-2.77,1.66-.31,5.84,2.52,4.32,5.53-2.97,6.35-10.13,11.7-13.22,3.13-1.8,6.77-2.38,10.25-3.19s6.92-2.16,10.29-3.58c3.66-1.54,7.44-3.09,11.47-3.14l-.66-4.91c-4.43,1.41-8.86,2.82-13.29,4.23-3.05.97-1.79,5.68,1.33,4.82,3.92-1.08,7.83-2.16,11.75-3.24,1.92-.53,3.84-1.06,5.75-1.59,2.22-.61,4.15-1.61,3.67-4.27-.24-1.33-1.86-2.08-3.08-1.75-1.4.38-1.99,1.74-1.75,3.08l.05.27.25-1.93-.16.25.9-.9c-.46.33-1.33.45-1.93.62l-2.4.66c-1.6.44-3.2.88-4.79,1.32-3.2.88-6.39,1.76-9.59,2.65l1.33,4.82c4.43-1.41,8.86-2.82,13.29-4.23,2.62-.84,2.24-4.94-.66-4.91-7.67.08-14.08,4.54-21.3,6.45-3.78,1-7.64,1.58-11.25,3.15-3.34,1.45-5.91,3.75-7.87,6.8-1.68,2.61-2.94,5.87-5.8,7.4l2.52,4.32c1.54-.92,2.77-2.15,3.69-3.69s-.24-3.91-2.16-3.76c-4.48.34-5.33,4.76-4.78,8.47.25,1.69.66,3.71,1.91,4.96s3.3,1.44,5.05,1.35c3.58-.19,6.89-1.63,10.07-3.17,1.6-.78,3.19-1.57,4.78-2.36.88-.44,1.77-.87,2.65-1.31.69-.34,1.46-.89,2.22-1.01h-1.33l.27.1-1.49-1.15c-.24-.32.04,0,.06.26.01.19.03.39,0,.58-.05.58-.3,1.18-.56,1.69-.62,1.21-1.47,2.26-2.37,3.27-1.76,1.99-3.6,3.98-6.08,5.05-2.33,1.01-4.94,1.22-7.45,1.15-1.29-.04-2.6-.14-3.88-.33-.61-.09-1.93-.16-2.31-.72l-2.82,3.67c2.04.39,4.06.85,6.07,1.36l1.33-4.82c-3.81-.84-9.05-1.9-9.75-6.49l-4.57,1.93c1.44,2.73,3.55,4.97,6.12,6.68,1.03.68,2.52.3,3.23-.64.8-1.07.6-2.28-.2-3.28-1.39-1.76-3.23-3.16-4.52-4.99-1.09-1.55-1.77-3.41-1.92-5.3-.3-3.96,1.45-7.49,4.58-9.9,3.66-2.81,8.29-3.87,12.74-4.63,5.12-.87,10.23-1.57,15.24-2.97,2.36-.66,4.82-1.69,6.18-3.86,1.44-2.29,1.32-5.22-.53-7.23-2.19-2.37-5.72,1.17-3.54,3.54h0Z"/>
  <path class="cls-2" d="M140.74,138.76c-3.91.29-8.09.81-11.42,3.05-3.56,2.39-5.27,6.12-6.85,9.96-.95,2.31,2.61,4.25,4.18,2.43,2.41-2.79,5.3-4.91,8.68-6.39l-2.52-4.32c-4.85,3.68-8.43,8.5-10.47,14.24l4.57-.6c-.73-1.13-.72-2.51.24-3.51l-4.18-2.43c-1.56,4.82-.39,9.95,2.74,13.86,1.57,1.96,4.94-.16,4.18-2.43-.58-1.73-.85-3.53-.57-5.35l-4.57.6c1.05,1.54.59,3.52.75,5.28.19,2.06.77,4.19,2.46,5.53,1.23.98,3.04,1.01,3.93-.51,1.05-1.8,1.3-3.76.86-5.78l-4.57,1.93c.82,1.62,1.82,3.08,2.95,4.49,1.22,1.52,3.71.55,4.18-1.1.04-.15.02-.1.16-.14l-3.08-3.08c-.18.85-.36,1.71-.54,2.56-.3,1.44.69,3.33,2.41,3.16,2.1-.21,3.95-1.44,4.39-3.63l-4.57.6-.09-.18v-1.33l.08-.17.9-.9-.19.13,2.52,4.32c1.51-1.08,3.15-1.78,5.02-1.89l-2.41-1.84c-.08-.41.13-.65.48-.79l2.43,4.18c2.78-2.58,5.61-5.1,8.48-7.57l-4.18-1.1v-.14c.12-.42.23-.84.34-1.26.03-.06-.06.04-.35.16-.62.25-1.25.48-1.86.74-1.13.48-2.23,1.02-3.29,1.65-2.11,1.25-4.06,2.78-5.8,4.51-2.29,2.27,1.25,5.8,3.54,3.54,2.01-1.99,4.28-3.59,6.83-4.81,2.22-1.07,6.83-2.17,5.43-5.71-.71-1.8-2.66-2.41-4.18-1.1-2.87,2.47-5.7,5-8.48,7.57-1.76,1.63.07,5.08,2.43,4.18s3.5-2.89,3.01-5.36c-.2-1.01-1.38-1.9-2.41-1.84-2.72.17-5.32.98-7.54,2.58-1.1.79-1.62,2.18-.9,3.42.64,1.1,2.3,1.66,3.42.9,1.45-.99,2.12-2.82,1.09-4.4-1.08-1.67-4.13-1.64-4.57.6-.11.54,0,0,.44-.04l2.41,3.16c.18-.85.36-1.71.54-2.56.39-1.84-1.15-3.59-3.08-3.08-1.82.49-3.15,1.82-3.66,3.63l4.18-1.1c-.86-1.07-1.56-2.26-2.17-3.48-1.33-2.63-5.14-.73-4.57,1.93.16.72,0,1.3-.36,1.93l3.93-.51c-1.17-.93-1.05-2.45-1.05-3.83-.01-2.08-.17-4.21-1.38-5.98-1.07-1.57-4.21-1.72-4.57.6-.42,2.71-.31,5.38.57,8l4.18-2.43c-2.02-2.52-2.43-5.98-1.45-9,.77-2.39-2.48-4.2-4.18-2.43-2.46,2.55-2.97,6.56-1.02,9.57,1.21,1.88,3.84,1.44,4.57-.6,1.57-4.4,4.44-8.42,8.17-11.25,2.57-1.95.45-5.62-2.52-4.32-3.72,1.63-7.05,4.1-9.69,7.17l4.18,2.43c1.1-2.67,2.33-5.59,4.87-7.18s5.65-1.94,8.57-2.16c1.35-.1,2.5-1.08,2.5-2.5,0-1.28-1.15-2.6-2.5-2.5h0Z"/>
  <path class="cls-2" d="M190.02,74.17c.57.43,1.26.69,1.96.85.27.06.57.14.84.18l.33.09c-.41-.18-.55-.54-.44-1.11l.64-1.1c-.58.74-2.22,1.06-3.17,1.27-1.4.31-2.86.33-4.29.21-2.65-.22-5.22-1.19-7.53-2.46-2.58-1.42-4.92-3.21-7.12-5.16-.95-.84-1.97-1.71-2.64-2.8-.72-1.16-.96-2.52-1.15-3.85-.46-3.15-.91-6.47-.24-9.62s1.94-6.2,3.11-9.2c1.74-4.49,3.56-10.51,8.7-12.07,2.75-.83,5.72-.76,8.57-.87,3.36-.13,6.71-.23,10.07-.18,6.13.1,12.24.74,18.08,2.68,2.6.86,5.09,2,7.43,3.43,1.1.67,2.17,1.4,3.16,2.22.5.41,1.09.83,1.47,1.35.08.11.16.4.27.46-.18-.47.03-.85.63-1.16-.13.11-.25.14-.36.07-.54-.18-1.35-.05-1.93-.11s-1.16-.18-1.74-.3c-1.6-.35-3.16-.85-4.69-1.42-2.86-1.08-5.61-2.45-8.43-3.64-3.37-1.41-6.81-2.55-10.47-2.86s-7,.76-10.51,1.62c-3.27.8-6.77.02-9.9,1.4-1.56.69-2.85,1.8-4.1,2.93-1.42,1.27-2.82,2.54-4.24,3.82-2.08,1.88.67,5.53,3.03,3.93,2.55-1.73,5.1-3.47,7.64-5.2l-3.03-3.93c-3.52,3.3-6.82,6.82-9.87,10.56-1.58,1.95-3.14,3.89-3.92,6.32s-.82,4.96-.39,7.33c.89,4.87,5.66,7,9.5,9.25,4.47,2.62,8.93,5.24,13.4,7.86,2.78,1.63,5.3-2.69,2.52-4.32-3.97-2.33-7.94-4.66-11.91-6.99-1.89-1.11-3.82-2.18-5.68-3.34-1.33-.83-2.58-1.74-2.93-3.36-.38-1.73-.22-3.88.45-5.53.72-1.79,2.16-3.31,3.38-4.77,2.79-3.34,5.8-6.5,8.97-9.48,2.04-1.91-.65-5.54-3.03-3.93-2.55,1.73-5.1,3.47-7.64,5.2l3.03,3.93c1.41-1.27,2.82-2.55,4.24-3.82,1.13-1.01,2.24-2,3.79-2.26s3.27-.05,4.89-.22c1.9-.2,3.72-.71,5.55-1.21,3.54-.97,6.8-1.06,10.35-.09s6.74,2.55,10.05,4,6.73,2.84,10.35,3.36c1.71.25,3.59.53,5.25-.1,1.97-.74,3-2.74,2.54-4.78-.39-1.72-1.71-3.02-3.02-4.1s-2.71-2.11-4.18-3c-2.87-1.76-6.01-3.11-9.21-4.12-7.08-2.25-14.62-2.74-22.01-2.68-3.8.04-7.62.13-11.41.39-3.54.24-7,.93-9.85,3.17-2.48,1.96-4.14,4.73-5.41,7.58-1.51,3.39-2.83,6.88-4.07,10.37-1.33,3.71-2.05,7.41-1.74,11.36.27,3.54.47,7.76,2.53,10.79s5.65,5.72,8.78,7.84,6.85,3.88,10.69,4.48,8.17.34,11.62-1.66c1.89-1.1,2.8-3.29,1.52-5.26-.61-.93-1.58-1.6-2.63-1.93-.67-.21-1.37-.19-1.94-.62-1.08-.82-2.8-.17-3.42.9-.75,1.28-.18,2.6.9,3.42h0Z"/>
  <path class="cls-2" d="M188.29,70.43c-4.19.38-8.6.07-12.34-2.03-3.1-1.75-5.42-4.56-6.14-8.06l-4.18,2.43c3.31,3.46,7.05,6.49,11.11,9.03,2.01,1.25,4.02-.81,3.67-2.82-.55-3.16-2.51-5.89-4.74-8.11s-4.84-3.97-6.71-6.44c-.82-1.07-2.16-1.64-3.42-.9-1.06.62-1.72,2.34-.9,3.42,1.96,2.58,4.41,4.54,6.76,6.74,1.97,1.85,3.72,3.89,4.19,6.62l3.67-2.82c-3.71-2.32-7.07-5.08-10.1-8.25-1.82-1.91-4.66.1-4.18,2.43.95,4.6,4.16,8.52,8.16,10.88,4.52,2.67,9.99,3.35,15.14,2.88,1.34-.12,2.5-1.06,2.5-2.5,0-1.26-1.15-2.62-2.5-2.5h0Z"/>
  <path class="cls-2" d="M166.11,57.79l.45,2.48,4.82-1.33c-2.65-8.02-.44-17.27,5.71-23.11.76-.72,1.56-1.41,2.5-1.89,1.1-.57,2.42-.71,3.63-.87,2.88-.39,5.8-.5,8.7-.46,5.76.06,11.5.74,17.22,1.42,3.07.36,6.1.83,9.04,1.8s5.65,2.29,8.4,3.61c1.22.59,2.7.33,3.42-.9.64-1.09.32-2.83-.9-3.42-2.79-1.35-5.6-2.69-8.52-3.74s-5.81-1.62-8.83-2.02c-6.32-.84-12.71-1.61-19.1-1.74-3.15-.06-6.3.06-9.43.45-1.53.19-3.13.35-4.6.88s-2.71,1.35-3.91,2.34c-3.89,3.19-6.67,7.72-8.18,12.49-1.68,5.32-1.72,11.2.04,16.51,1.02,3.09,5.39,1.82,4.82-1.33l-.45-2.48c-.24-1.33-1.86-2.08-3.08-1.75-1.4.38-1.99,1.74-1.75,3.08h0Z"/>
  <path class="cls-2" d="M172.2,66.71c-3.4-1.79-7.44-3.92-6.53-8.39s2.01-9.28,3.23-13.85c1.05-3.95,2.4-8.11,4.98-11.35,1.13-1.42,2.41-2.39,4.25-2.54,2.52-.21,5.13-.04,7.65.1,3.22.18,3.21-4.82,0-5-2.25-.12-4.51-.19-6.77-.13-2.1.06-4.2.4-5.98,1.59-3.24,2.18-5.25,5.86-6.73,9.37-1.58,3.76-2.54,7.72-3.45,11.68-.51,2.22-1.02,4.45-1.53,6.67s-1.1,4.51-.65,6.83c.89,4.63,5.15,7.3,9,9.33,2.85,1.5,5.38-2.82,2.52-4.32h0Z"/>
  <path class="cls-2" d="M14.06,156.4c7.72,11.38,20.39,15.99,33.68,16.96,14.27,1.05,27.75-1.21,38.6-11.1,4.76-4.35-2.32-11.4-7.07-7.07-8.37,7.64-18.77,8.83-29.69,8.28-10.07-.5-20.92-3.32-26.89-12.12-3.59-5.3-12.26-.3-8.63,5.05h0Z"/>
  <path class="cls-1" d="M248.56,14.84c8.1,6.38,15.97,13.12,22.92,20.76,3.39,3.72,6.54,7.65,9.34,11.84,2.65,3.97,4.91,8.18,7.48,12.2,2.95,4.63,6.35,8.9,10.83,12.13,1.1.79,2.78.19,3.42-.9.74-1.26.2-2.63-.9-3.42-7.51-5.4-11.22-14.5-16.16-22-5.62-8.54-12.59-16.12-20.13-22.99-4.27-3.89-8.73-7.57-13.27-11.15-1.06-.84-2.5-1.03-3.54,0-.87.87-1.07,2.69,0,3.54h0Z"/>
  <path class="cls-1" d="M290.11,61.33c2.12,7.48,8.28,12.61,11.58,19.46.59,1.22,2.32,1.54,3.42.9,1.24-.73,1.49-2.2.9-3.42-1.59-3.31-3.87-6.2-6.03-9.15s-4.11-5.83-5.05-9.12c-.88-3.09-5.7-1.78-4.82,1.33h0Z"/>
</svg>